<?xml version="1.0" encoding="UTF-8"?>
<svg width="392px" height="320px" viewBox="0 0 392 320" version="1.1" xmlns="http://www.w3.org/2000/svg" xmlns:xlink="http://www.w3.org/1999/xlink">
    <!-- Generator: Sketch 50.2 (55047) - http://www.bohemiancoding.com/sketch -->
    <title>Shape@2x</title>
    <desc>Created with Sketch.</desc>
    <defs></defs>
    <g id="Page-1" stroke="none" stroke-width="1" fill="none" fill-rule="evenodd">
        <g id="kompaktlogo_rgb" fill="#FFFFFF" fill-rule="nonzero">
            <path d="M391.135,83.878 C390.696,81.562 389.483,80.432 388.051,79.936 C386.709,79.431 384.965,79.411 383.256,80.147 C381.328,80.956 379.565,82.747 377.801,85.283 C374.68,89.664 370.637,95.306 365.77,102.205 C360.831,109.113 355.981,116.021 350.6,123.152 C345.272,130.288 340.02,137.06 334.51,143.371 C329.11,149.674 323.598,156.518 318.401,160.109 C317.042,161.083 316.381,161.203 316.032,161.157 C315.481,161.092 314.985,160.661 315.094,159.779 C315.332,157.455 316.307,154.304 317.83,150.122 C319.355,145.925 321.064,142.232 322.937,138.162 C324.81,134.111 326.464,130.739 328.06,127.395 C329.697,124.032 330.816,122.067 331.292,120.661 C335.04,112.569 339.136,104.566 342.864,96.462 C346.63,88.341 350.028,80.101 352.874,71.272 C354.362,65.879 355.942,60.533 356.915,54.58 C357.907,48.627 357.944,43.114 357.632,37.466 C357.191,32.173 356.017,26.615 353.464,21.727 C351.021,16.491 347.034,12.273 341.946,8.847 C335.94,4.685 329.989,2.527 323.817,2.261 C317.59,1.939 311.805,2.601 306.221,4.916 C300.655,7.231 295.125,10.374 290.094,14.452 C284.932,18.889 280.194,23.107 276.227,27.572 C272.719,31.816 269.063,36.418 265.887,40.782 C262.248,45.376 259.071,49.757 256.151,54.608 C256.28,53.074 256.555,51.2 256.831,49.344 C257.602,44.079 257.62,39.945 255.546,34.543 C253.984,30.327 251.817,27.736 247.978,25.255 C243.699,22.499 240.759,21.727 236.132,21.424 C231.191,21.047 228.251,21.543 224.523,22.966 C220.886,24.374 217.636,26.771 214.972,29.747 C212.181,33.082 210.802,36.913 210.031,42.177 C208.322,50.206 205.494,57.886 202.371,65.438 C199.25,72.972 195.87,80.035 192.05,87.349 C188.193,94.625 184.464,101.561 180.772,108.516 C180.528,108.971 180.336,109.442 180.097,109.9 C179.91,110.21 179.76,110.456 179.567,110.776 C174.828,118.677 169.094,128.47 162.792,136.72 C156.472,144.942 149.636,153.449 142.085,161.249 C134.938,169.186 127.294,176.002 119.063,181.716 C111.291,187.595 103.279,191.538 94.846,193.963 C86.412,196.398 79.762,197.758 70.318,192.833 C65.982,190.555 62.821,187.376 60.727,181.561 C58.926,176.305 58.743,170.29 58.853,163.454 C73.919,163.454 88.361,161.369 101.848,156.656 C115.315,151.944 127.755,143.666 139.165,131.769 C146.128,124.226 152.449,115.976 157.52,105.926 C162.591,95.858 166.431,85.339 167.883,74.893 C169.72,64.558 169.39,53.901 166.468,43.667 C164.208,33.222 158.512,24.299 149.693,16.051 C140.543,7.672 129.739,2.353 117.612,0.709 C105.486,-0.954 93.763,0.259 82.665,4.917 C73.184,8.831 64.769,13.984 57.272,20.406 C49.555,27.241 43.179,34.517 36.822,42.767 C31.144,50.759 25.669,59.322 21.26,68.72 C16.924,78.109 13.102,87.259 9.905,96.17 C6.928,105.623 4.173,115.646 2.629,126.505 C0.553,137.226 -0.183,148.406 0.038,159.468 C0.222,170.547 1.563,181.084 4.3,191.704 C6.615,202.185 11.135,211.612 16.74,219.614 C22.583,228.148 29.564,234.808 38.99,240.045 C47.957,245.172 59.072,248.295 71.879,249.297 C82.885,250.087 93.248,248.82 102.802,245.861 C112.319,242.941 121.488,238.484 130.142,232.916 C138.76,227.368 146.679,221.084 154.083,213.687 C156.505,211.263 158.708,208.752 160.959,206.259 C163.218,210.246 166.487,213.49 170.964,215.902 C173.958,217.39 176.786,218.382 180.111,218.841 C183.546,219.282 186.724,219.255 189.809,218.402 C192.876,217.555 195.723,216.233 198.074,214.276 C200.461,212.006 202.262,209.517 203.291,206.347 C204.062,203.959 204.283,201.406 204.687,198.153 C204.98,195.82 205.824,189.499 205.824,189.499 C207.974,176.07 212.291,163.023 218.406,150.62 C224.523,138.245 231.502,126.588 239.218,115.177 C250.349,98.695 262.708,84.264 276.245,71.008 C276.833,70.429 278.063,69.298 280.341,67.369 C282.251,65.301 285.007,63.153 287.927,60.644 C290.792,58.165 293.732,55.711 296.909,53.258 C300.454,50.594 302.511,49.179 304.696,48.224 C307.065,47.14 308.278,47.111 309.087,48.059 C309.933,49.051 309.216,51.201 306.827,56.098 C304.292,61.472 302.548,65.055 299.003,71.393 C296.046,76.667 293.327,81.563 290.737,86.552 C286.77,94.195 283.133,102.095 279.423,110.063 C275.806,117.834 272.884,125.854 270.515,134.49 C268.734,140.534 267.484,147.204 266.97,154.094 C266.437,161.012 266.824,167.497 268.404,173.985 C270.002,180.489 272.775,185.836 276.908,190.889 C280.637,195.812 286.422,199.477 293.732,202.16 C299.757,204.355 307.38,204.429 311.457,203.253 C317.738,201.508 321.504,199.036 326.611,194.755 C332.451,189.949 336.382,185.1 340.882,179.229 C345.251,173.727 349.275,168.086 352.837,162.647 C355.649,158.165 358.991,152.267 362.812,146.148 C366.634,140.029 370.197,133.432 373.777,126.846 C377.359,120.259 380.445,113.883 383.586,107.526 C386.58,101.508 388.602,95.914 390.365,91.017 C391.246,88.589 391.502,85.861 391.135,83.878 Z M64.787,128.563 C67.029,121.056 69.344,113.532 72.559,105.925 C75.811,98.319 79.467,90.822 83.325,83.904 C85.604,80.128 88.507,75.563 91.612,71.171 C94.845,66.707 98.319,62.848 102.269,59.852 C105.558,57.391 107.432,56.784 110.666,57.639 C114.084,58.549 114.966,61.194 115.075,65.632 C115.241,70.373 114.304,74.809 112.76,79.817 C110.795,86.331 109.894,88.481 108.59,91.273 C103.904,101.407 97.106,111.604 87.589,118.788 C80.901,123.316 73.183,126.945 64.787,128.563 Z M84.097,304.178 C87.074,313.953 103.812,324.711 124.722,317.813 C208.01,290.269 309.488,283.206 309.525,283.206 C317.261,282.232 323.304,275.599 323.304,267.569 C323.324,258.861 316.249,251.795 307.558,251.804 C200.126,250.317 159.944,256.573 128.8,263.425 C88.562,271.564 81.194,291.545 84.097,304.178 Z" id="Shape"></path>
        </g>
    </g>
</svg>